HIERARCHY
ROOT hip
{
	OFFSET 0.000000 0.000000 0.000000 
	CHANNELS 6 Xposition Yposition Zposition Xrotation Zrotation Yrotation
	JOINT abdomen
	{
		OFFSET 0.000000 3.402643 0.000000 
		CHANNELS 3 Xrotation Zrotation Yrotation
		JOINT chest
		{
			OFFSET 0.000000 8.438565 -0.680529 
			CHANNELS 3 Xrotation Zrotation Yrotation
			JOINT neck
			{
				OFFSET 0.000000 10.207942 -0.272212 
				CHANNELS 3 Xrotation Zrotation Yrotation
				JOINT head
				{
					OFFSET 0.000000 3.130431 0.000000 
					CHANNELS 3 Xrotation Zrotation Yrotation
					End Site
					{
						OFFSET 0.000000 3.130435 0.000000 
					}
				}
			}
			JOINT lCollar
			{
				OFFSET 3.470700 6.669187 -0.816635 
				CHANNELS 3 Yrotation Zrotation Xrotation
				JOINT lShldr
				{
					OFFSET 3.198488 0.000000 0.000000 
					CHANNELS 3 Zrotation Yrotation Xrotation
					JOINT lForeArm
					{
						OFFSET 10.139888 0.000000 0.000000 
						CHANNELS 3 Yrotation Zrotation Xrotation
						JOINT lHand
						{
							OFFSET 8.370511 0.000000 0.000000 
							CHANNELS 3 Zrotation Yrotation Xrotation
							End Site
							{
								OFFSET 4.083176 0.000000 0.000000 
							}
						}
					}
				}
			}
			JOINT rCollar
			{
				OFFSET -3.470700 6.669187 -0.816635 
				CHANNELS 3 Yrotation Zrotation Xrotation
				JOINT rShldr
				{
					OFFSET -3.198488 0.000000 0.000000 
					CHANNELS 3 Zrotation Yrotation Xrotation
					JOINT rForeArm
					{
						OFFSET -10.139888 0.000000 0.000000 
						CHANNELS 3 Yrotation Zrotation Xrotation
						JOINT rHand
						{
							OFFSET -8.370511 0.000000 0.000000 
							CHANNELS 3 Zrotation Yrotation Xrotation
							End Site
							{
								OFFSET -4.083176 0.000000 0.000000 
							}
						}
					}
				}
			}
		}
	}
	JOINT lThigh
	{
		OFFSET 5.308129 -1.633274 1.361059 
		CHANNELS 3 Xrotation Zrotation Yrotation
		JOINT lShin
		{
			OFFSET -2.041588 -20.007561 0.000000 
			CHANNELS 3 Xrotation Zrotation Yrotation
			JOINT lFoot
			{
				OFFSET 0.000000 -19.190928 -1.224953 
				CHANNELS 3 Xrotation Yrotation Zrotation
				End Site
				{
					OFFSET 0.000000 -2.449906 4.627600 
				}
			}
		}
	}
	JOINT rThigh
	{
		OFFSET -5.308129 -1.633274 1.361059 
		CHANNELS 3 Xrotation Zrotation Yrotation
		JOINT rShin
		{
			OFFSET 2.041588 -20.007561 0.000000 
			CHANNELS 3 Xrotation Zrotation Yrotation
			JOINT rFoot
			{
				OFFSET 0.000000 -19.190928 -1.224953 
				CHANNELS 3 Xrotation Yrotation Zrotation
				End Site
				{
					OFFSET 0.000000 -2.449906 4.627600 
				}
			}
		}
	}
}
MOTION
Frames: 16
Frame Time: 0.016667
-9.941259 45.156956 195.526733 -2.462640 2.126940 -26.273001 -20.435699 -2.266830 2.771920 18.222601 0.136605 1.010060 -0.145670 6.883610 5.956880 4.530490 7.010290 3.305330 2.000000 -2.000000 0.000000 -56.340599 10.448600 158.794998 22.607700 -0.341059 0.052617 0.053550 -0.052737 -156.110992 -2.000000 2.000000 0.000000 78.676903 -29.193800 147.326004 -22.256100 0.341379 0.051784 -0.061214 0.046260 -153.679993 -15.123698 -6.735537 11.211386 31.977320 2.209148 2.567383 6.468182 -23.850245 2.081152 -7.982398 -7.694962 -3.334043 79.840607 -0.238081 -4.317817 -163.888840 179.282745 -0.390107 
-9.991215 45.499554 196.463638 -2.814810 2.321420 -26.364000 -20.524799 -2.202210 2.554750 18.095600 0.400021 0.910542 1.067470 6.286830 6.415730 4.952900 6.842780 3.521100 2.000000 -2.000000 0.000000 -57.251202 10.133400 161.931000 25.049101 -0.338706 0.057945 0.065771 -0.059322 -158.621002 -2.000000 2.000000 0.000000 78.735802 -28.297400 148.324005 -22.129200 0.341493 0.051504 -0.058767 0.037178 -150.320007 -13.345038 -7.850412 10.355739 30.680223 2.236599 2.503816 5.761827 -22.201227 1.576463 -9.479106 -6.795512 -1.287812 77.831642 -0.358179 -4.291155 -163.670975 178.114136 -0.598184 
-10.031152 46.044968 197.381454 -3.157200 2.457210 -26.033800 -20.517200 -2.081040 2.071070 18.115000 0.829325 0.687298 1.607460 5.970660 6.853160 5.041290 6.813130 3.706840 2.000000 -2.000000 0.000000 -58.669601 9.936670 165.574005 28.076500 -0.335476 0.064405 0.069238 -0.067385 -161.755997 -2.000000 2.000000 0.000000 78.671501 -27.465500 152.154007 -23.437799 0.340284 0.054383 -0.059560 0.040362 -151.492004 -11.632884 -8.865338 9.326410 29.389004 2.274029 2.373483 6.129510 -19.248928 1.423791 -10.590653 -5.983122 0.182859 75.127213 -0.518927 -4.255458 -162.720505 178.891708 -0.313497 
-10.069346 46.760529 198.281281 -3.274040 2.261930 -25.344101 -20.341700 -1.874130 1.454590 18.515200 1.190650 0.406790 1.402470 5.568800 7.162060 4.824450 6.687040 3.816290 2.000000 -2.000000 0.000000 -60.429100 9.749130 168.914001 31.631201 -0.331255 0.071760 0.071657 -0.072382 -163.738007 -2.000000 2.000000 0.000000 78.693901 -26.399000 155.744995 -25.224899 0.338527 0.058268 -0.060441 0.043609 -152.692993 -10.464453 -9.108124 8.640140 28.894882 2.317274 2.354496 7.780652 -15.536666 1.626892 -11.543167 -4.776448 1.212926 72.020058 -0.712516 -4.186987 -163.412537 -180.737778 -0.079403 
-10.119461 47.602467 199.140671 -3.283170 1.959670 -24.458000 -20.086100 -1.614610 0.922803 19.032700 1.483850 0.185150 1.267500 4.963910 7.255290 4.725410 6.482330 3.840360 2.000000 -2.000000 0.000000 117.792000 170.720993 -7.551360 35.605801 -0.326005 0.079655 0.072530 -0.074085 -164.421997 -2.000000 2.000000 0.000000 79.076202 -25.252600 158.434006 -27.060801 0.336597 0.062201 -0.061582 0.047463 -154.128998 -9.988281 -8.757951 8.641062 29.341400 2.365212 2.348004 10.296899 -10.986972 1.739593 -12.545341 -3.403558 2.013947 68.531731 -0.910448 -4.116827 -164.154831 -180.260559 0.146341 
-10.171328 48.497425 199.951752 -3.360990 1.774290 -23.365801 -19.898701 -1.394570 0.452656 19.354900 1.835530 -0.009183 1.514150 4.254970 7.202720 4.832660 6.247600 3.800380 2.000000 -2.000000 0.000000 116.033997 171.397003 -4.307570 40.332401 -0.319068 0.088543 0.071620 -0.072309 -163.709000 -2.000000 2.000000 0.000000 79.731400 -24.242001 160.710999 -28.877300 0.334565 0.066029 -0.063352 0.052840 -156.149994 -10.018896 -8.188876 8.963906 30.323721 2.368442 2.417977 12.786594 -5.780940 1.333266 -13.254542 -2.330503 2.539207 64.944023 -1.128274 -4.019198 -164.864441 -180.231445 0.285736 
-10.208017 49.358795 200.743729 -3.594970 1.491200 -22.007700 -19.681601 -1.223140 -0.091492 19.579399 2.128600 -0.251119 1.756740 3.816360 7.238300 4.910780 6.120370 3.816700 2.000000 -2.000000 0.000000 114.344002 172.279007 -1.522270 43.545399 -0.313945 0.094245 0.072720 -0.074449 -164.567993 -2.000000 2.000000 0.000000 80.503899 -23.300600 163.281998 -30.586300 0.332543 0.069570 -0.075235 0.068324 -158.328003 -10.289727 -7.526256 9.015975 31.657370 2.378280 2.472856 14.989262 -1.021059 0.515132 -13.248326 -1.582454 2.498260 60.854282 -1.377276 -3.864565 -165.223038 -180.635727 0.233742 
-10.235743 50.133293 201.512115 -3.730870 0.838064 -20.562500 -19.414400 -0.987821 -0.604283 19.853001 2.236160 -0.457124 1.698000 3.513210 7.212790 4.871060 6.003340 3.801050 2.000000 -2.000000 0.000000 112.870003 173.561996 1.146790 46.592300 -0.308799 0.099378 0.073918 -0.076692 -165.475998 -2.000000 2.000000 0.000000 81.343201 -22.121000 164.164001 -31.543301 0.331364 0.071526 -0.077080 0.063062 -160.065994 -10.599327 -6.513742 8.381422 32.645329 2.415823 2.512902 16.973413 1.620608 -0.161332 -13.985783 -0.414019 2.518978 58.139050 -1.506773 -3.777004 -165.218384 -180.460709 0.323426 
-10.247548 50.786697 202.305237 -3.857450 0.224101 -19.194799 -19.206301 -0.689424 -0.948834 20.097300 2.275320 -0.574863 1.487770 3.109960 6.877620 4.772330 5.847450 3.613020 2.000000 -2.000000 0.000000 111.416000 174.921997 4.001590 49.697701 -0.303280 0.104321 0.074843 -0.078368 -166.160004 -2.000000 2.000000 0.000000 82.114502 -21.390301 164.917007 -32.754299 0.329827 0.073973 -0.078098 0.065393 -160.973999 -10.644032 -5.785751 6.939805 32.482967 2.479360 2.494606 18.997213 2.416460 -0.481015 -14.293276 0.500818 2.419318 55.274326 -1.676405 -3.664564 -165.457321 -179.555328 0.573683 
-10.243223 51.290161 203.175858 -4.140660 -0.233763 -18.010401 -19.068001 -0.419371 -1.146230 20.331900 2.265610 -0.624114 1.443000 2.683120 6.385170 4.752270 5.720570 3.365280 2.000000 -2.000000 0.000000 110.029999 176.076004 7.296020 52.891102 -0.297335 0.109085 0.076324 -0.080955 -167.223999 -2.000000 2.000000 0.000000 82.720497 -21.139299 166.207001 -34.443699 0.327596 0.077330 -0.079642 0.068746 -162.292999 -9.992581 -5.554935 5.109076 30.823933 2.568808 2.352771 16.118055 1.413218 -0.147153 -14.023623 1.043243 2.406857 52.242416 -1.826210 -3.524534 -165.501022 -178.463043 0.846485 
-10.240358 51.637905 204.049835 -4.462970 -0.350497 -17.140600 -18.813900 -0.295759 -1.177970 20.761900 2.226550 -0.606888 1.626210 1.821240 5.833890 4.947210 5.348850 3.105350 2.000000 -2.000000 0.000000 -71.003502 2.613900 -169.039001 56.445801 -0.290416 0.113989 0.080046 -0.096778 -169.763000 -2.000000 2.000000 0.000000 83.394600 -20.547199 167.722000 -36.113701 0.325295 0.080583 -0.080956 0.071452 -163.367004 -9.086441 -5.673157 3.331563 27.855337 2.668571 2.153629 11.377702 0.421054 0.133541 -13.933376 1.310632 2.738810 49.707790 -1.995484 -3.397938 -165.434128 -177.506836 1.094221 
-10.234787 51.850124 204.881165 -4.922460 0.885395 -16.433701 -18.990499 -0.509606 -1.053230 20.586000 2.666020 -0.593886 1.550820 1.607770 5.578460 4.907670 5.261110 2.983160 2.000000 -2.000000 0.000000 -71.997597 1.899900 -165.317001 60.586399 -0.281993 0.119146 -179.925003 -179.906006 7.023630 -2.000000 2.000000 0.000000 83.834900 -20.307699 169.725006 -37.871498 0.322771 0.083933 -0.081509 0.072552 -163.806000 -8.152776 -7.176143 1.791086 23.758177 2.684501 1.890006 7.647342 0.323861 0.169951 -14.295320 0.085697 3.487765 47.535183 -2.135642 -3.268885 -165.612259 -177.199081 1.128893 
-10.260592 51.892719 205.706833 -5.333230 1.215420 -15.670100 -18.923000 -0.561932 -0.942561 20.605499 2.753910 -0.544060 1.286770 1.747120 5.200240 4.839220 5.319930 2.792180 2.000000 -2.000000 0.000000 -72.934402 0.583814 -164.326996 63.252499 -0.276380 0.122140 0.076090 -0.080554 -167.057999 -2.000000 2.000000 0.000000 84.245003 -19.704901 170.839005 -38.789501 0.321413 0.085652 -0.082157 0.073817 -164.313995 -7.051323 -7.490056 0.555588 20.367983 2.726363 1.646929 4.990120 -0.143530 0.230013 -14.286025 -0.064281 4.121493 45.352573 -2.269110 -3.149857 -165.950989 -177.331421 1.103144 
-10.308594 51.824387 206.524658 -5.589000 1.895250 -14.667800 -19.137899 -0.645786 -0.943699 20.370800 3.115220 -0.566724 0.779160 2.330370 4.990670 4.575230 5.594190 2.662950 2.000000 -2.000000 0.000000 -73.810799 0.015646 -160.811005 67.344299 -0.267512 0.126218 0.081427 -0.098881 -170.662003 -2.000000 2.000000 0.000000 -95.656898 -160.466995 -7.509930 -40.137100 0.319369 0.088134 -0.082920 0.075270 -164.899994 -6.170489 -7.888319 -1.057555 14.296101 2.626682 1.208941 5.814007 4.714998 0.003427 -14.395581 -0.571534 4.712151 43.157295 -2.410011 -2.997775 -166.045334 -177.608444 1.028431 
-10.373041 51.632107 207.317780 -5.638150 1.982560 -13.379200 -19.303400 -0.598151 -1.011260 20.204500 3.242130 -0.596055 0.759732 1.874790 4.242370 4.672730 5.398590 2.299160 2.000000 -2.000000 0.000000 -74.707497 -0.907429 -158.727997 71.103996 -0.259125 0.129399 0.081109 -0.098403 -170.457001 -2.000000 2.000000 0.000000 -95.715202 -160.686996 -5.605100 -41.621498 0.317051 0.090812 -0.083514 0.076379 -165.348999 -6.144529 -7.498068 -1.534033 10.488187 2.623988 0.896648 6.383684 6.684093 -0.202245 -14.393397 -0.426988 5.024164 40.943401 -2.529045 -2.870136 -165.893860 -178.031326 0.912884 
-10.435648 51.293896 208.070419 -6.060240 2.447200 -12.036800 -19.322701 -0.746428 -1.073020 20.008801 3.447110 -0.648117 -0.332468 2.622400 3.948460 4.192850 5.722160 2.118380 2.000000 -2.000000 0.000000 -75.465797 -1.641620 -155.084000 74.492699 -0.251402 0.131789 -179.925003 -179.906006 7.365430 -2.000000 2.000000 0.000000 -95.822197 -160.770004 -3.349030 -43.828602 0.313478 0.094681 -0.083815 0.076931 -165.574005 -6.396198 -7.599297 -0.352927 8.700572 2.653716 0.750109 6.092602 8.112302 -0.351902 -14.081485 -0.873853 5.211379 38.834511 -2.656959 -2.728197 -165.949158 -178.759460 0.697779 
